<?xml version="1.0" encoding="utf-8"?>
<!-- Generator: Adobe Illustrator 22.1.0, SVG Export Plug-In . SVG Version: 6.00 Build 0)  -->
<svg version="1.1" id="Layer_1" xmlns="http://www.w3.org/2000/svg" xmlns:xlink="http://www.w3.org/1999/xlink" x="0px" y="0px"
	 viewBox="0 0 500 500" style="enable-background:new 0 0 500 500;" xml:space="preserve">
<style type="text/css">
	.st0{fill:none;stroke:#999999;stroke-width:15;stroke-linecap:round;stroke-linejoin:round;}
	.st1{fill:none;stroke:#039BE5;stroke-width:3;stroke-linecap:round;stroke-linejoin:round;}
	.st2{fill:none;stroke:#999999;stroke-width:3;stroke-linecap:round;stroke-linejoin:round;}
	.st3{fill:none;stroke:#999999;stroke-width:10;stroke-linecap:round;stroke-linejoin:round;}
</style>
<g>
	<polyline class="st0" points="323,80.4 370.1,80.4 370.1,435.3 117.2,435.3 117.2,80.4 158,80.4 	"/>
	<line class="st0" x1="158" y1="80.4" x2="323" y2="80.4"/>
	<g>
		<path class="st1" d="M338.9,115.3L338.9,115.3c5.4,0,9.7,4.4,9.7,9.7l0,0c0,5.4-4.4,9.7-9.7,9.7l0,0c-5.4,0-9.7-4.4-9.7-9.7l0,0
			C329.1,119.7,333.5,115.3,338.9,115.3z"/>
		<path class="st2" d="M334.1,123.2l5.6,5.6l15-15"/>
	</g>
	<g transform="translate(0 37.94)">
		<path class="st1" d="M338.9,115.3L338.9,115.3c5.4,0,9.7,4.4,9.7,9.7l0,0c0,5.4-4.4,9.7-9.7,9.7l0,0c-5.4,0-9.7-4.4-9.7-9.7l0,0
			C329.1,119.7,333.5,115.3,338.9,115.3z"/>
		<path class="st2" d="M334.1,123.2l5.6,5.6l15-15"/>
	</g>
	<path class="st3" d="M258,125.1h51.1"/>
	<path class="st3" d="M200.1,125.1H258"/>
	<path class="st3" d="M142.2,125.1h57.9"/>
	<path class="st3" d="M142.2,163h146.2"/>
	<path class="st3" d="M142.2,200.9H293"/>
	<path class="st3" d="M142.2,238.9h162.3"/>
	<path class="st3" d="M142.2,276.8h165.7"/>
	<path class="st3" d="M142.2,314.8h166.8"/>
	<path class="st3" d="M142.2,352.7h162.3"/>
	<path class="st3" d="M142.2,390.6h147.9"/>
	<g transform="translate(0 75.88)">
		<path class="st1" d="M338.9,115.3L338.9,115.3c5.4,0,9.7,4.4,9.7,9.7l0,0c0,5.4-4.4,9.7-9.7,9.7l0,0c-5.4,0-9.7-4.4-9.7-9.7l0,0
			C329.1,119.7,333.5,115.3,338.9,115.3z"/>
		<path class="st2" d="M334.1,123.2l5.6,5.6l15-15"/>
	</g>
	<path class="st1" d="M338.9,229.1L338.9,229.1c5.4,0,9.7,4.4,9.7,9.7l0,0c0,5.4-4.4,9.7-9.7,9.7l0,0c-5.4,0-9.7-4.4-9.7-9.7l0,0
		C329.1,233.5,333.5,229.1,338.9,229.1z"/>
	<path class="st1" d="M338.9,267.1L338.9,267.1c5.4,0,9.7,4.4,9.7,9.7l0,0c0,5.4-4.4,9.7-9.7,9.7l0,0c-5.4,0-9.7-4.4-9.7-9.7l0,0
		C329.1,271.5,333.5,267.1,338.9,267.1z"/>
	<g transform="translate(0 189.7)">
		<path class="st1" d="M338.9,115.3L338.9,115.3c5.4,0,9.7,4.4,9.7,9.7l0,0c0,5.4-4.4,9.7-9.7,9.7l0,0c-5.4,0-9.7-4.4-9.7-9.7l0,0
			C329.1,119.7,333.5,115.3,338.9,115.3z"/>
		<path class="st2" d="M334.1,123.2l5.6,5.6l15-15"/>
	</g>
	<g transform="translate(0 227.64)">
		<path class="st1" d="M338.9,115.3L338.9,115.3c5.4,0,9.7,4.4,9.7,9.7l0,0c0,5.4-4.4,9.7-9.7,9.7l0,0c-5.4,0-9.7-4.4-9.7-9.7l0,0
			C329.1,119.7,333.5,115.3,338.9,115.3z"/>
		<path class="st2" d="M334.1,123.2l5.6,5.6l15-15"/>
	</g>
	<path class="st1" d="M338.9,380.9L338.9,380.9c5.4,0,9.7,4.4,9.7,9.7l0,0c0,5.4-4.4,9.7-9.7,9.7l0,0c-5.4,0-9.7-4.4-9.7-9.7l0,0
		C329.1,385.3,333.5,380.9,338.9,380.9z"/>
</g>
</svg>
