<?xml version="1.0" encoding="utf-8"?>
<!-- Generator: Adobe Illustrator 22.1.0, SVG Export Plug-In . SVG Version: 6.00 Build 0)  -->
<svg version="1.1" id="Layer_1" xmlns="http://www.w3.org/2000/svg" xmlns:xlink="http://www.w3.org/1999/xlink" x="0px" y="0px"
	 viewBox="0 0 1024 1024" style="enable-background:new 0 0 1024 1024;" xml:space="preserve">
<style type="text/css">
	.st0{fill:#999999;}
	.st1{fill:#039BE5;}
</style>
<g transform="translate(0.000000,1024.000000) scale(0.100000,-0.100000)">
	<path class="st0" d="M1473,10219c-64-25-131-88-163-154l-25-50l-3-722c-2-709-2-722,18-777c24-63,87-134,148-165
		c83-42,216-45,294-6c98,51,158,133,178,245c8,45,10,271,8,735l-3,670l-23,49c-33,72-82,128-143,161c-46,25-67,30-144,32
		C1543,10240,1515,10236,1473,10219z"/>
	<path class="st0" d="M6603,10223c-57-20-138-94-171-157l-27-51v-735v-735l27-51c36-68,115-138,180-160c76-25,175-22,240,8
		c98,45,152,107,182,208c14,47,16,142,16,729c0,750,1,742-66,834c-38,52-107,101-164,117C6769,10244,6652,10241,6603,10223z"/>
	<path class="st0" d="M512,8940c-122-32-206-82-307-184c-74-74-98-107-132-176C-7,8416,0,8708,0,5438c0-2878,0-2926,20-3002
		c52-205,208-387,398-467c150-62,40-59,2148-59h1924v325v325H2587c-1832,0-1905,1-1920,18c-16,17-17,187-17,2235v2217h3515h3515
		v-640v-640h325h325l-3,1318c-3,1471,3,1354-74,1507c-83,167-210,281-386,348c-81,31-85,31-293,35l-212,4l-4-219
		c-4-169-9-230-23-273c-54-171-184-326-336-398c-106-50-172-66-279-65c-289,1-538,197-611,480c-16,63-19,111-19,275v198H4166H2242
		l-5-207c-5-233-15-283-75-403c-26-53-59-97-112-151c-111-112-216-165-374-189c-250-38-533,118-646,355c-52,109-60,163-60,389v206
		l-192-1C621,8959,571,8955,512,8940z"/>
	<path class="st0" d="M1280,5755v-645h645h645v645v645h-645h-645V5755z"/>
	<path class="st1" d="M3200,5755v-645h645h645v645v645h-645h-645V5755z"/>
	<path class="st0" d="M5120,5755v-645h645h645v645v645h-645h-645V5755z"/>
	<path class="st0" d="M7378,5105c-568-69-1097-325-1499-725c-218-217-369-427-499-695c-120-246-195-484-237-755
		c-23-145-25-576-5-715c59-395,189-744,390-1050c263-402,603-703,1027-910c253-125,482-196,747-235c167-25,576-28,733-5
		c449,63,836,226,1215,509c115,85,361,329,452,447c220,284,386,622,467,949c58,235,63,276,68,581c4,256,3,303-16,430
		c-158,1083-981,1940-2061,2148C7949,5120,7597,5131,7378,5105z M7931,4455c1017-135,1761-1066,1659-2076
		c-78-762-586-1399-1310-1639c-476-159-973-126-1427,95c-468,228-821,628-983,1114c-280,837,39,1737,790,2224
		c222,143,498,245,764,281C7558,4472,7799,4473,7931,4455z"/>
	<path class="st0" d="M7240,3818c-74-29-150-105-178-181c-22-57-22-66-22-756c0-776-2-755,68-846c27-36,57-60,106-85l69-35h721
		c720,0,721,0,768,22c67,31,142,104,169,166c17,40,23,71,23,133c1,73-2,87-34,150c-25,49-49,79-85,106c-89,68-90,68-651,68h-503
		l-3,519l-3,518l-35,69C7574,3815,7400,3879,7240,3818z"/>
	<path class="st1" d="M1280,3835v-645h645h645v645v645h-645h-645V3835z"/>
	<path class="st0" d="M3200,3835v-645h645h645v645v645h-645h-645V3835z"/>
</g>
</svg>
